<svg width="40" height="40" viewBox="0 0 40 40" fill="none" xmlns="http://www.w3.org/2000/svg">
<g clip-path="url(#clip0_1078_5901)">
<path d="M33.3334 6.66669L25.0001 15M25.0001 15V10M25.0001 15H30.0001M9.62971 6.66669C7.99331 6.66669 6.66675 7.99325 6.66675 9.62965V11.1111C6.66675 23.3841 16.616 33.3334 28.889 33.3334H30.3705C32.0068 33.3334 33.3334 32.0068 33.3334 30.3704V25.5123C33.3334 24.8746 32.9254 24.3084 32.3204 24.1068L25.6635 21.8878C24.964 21.6547 24.1996 21.9713 23.8699 22.6307L22.1979 25.9748C18.5761 24.3419 15.6582 21.424 14.0253 17.8022L17.3694 16.1302C18.0288 15.8005 18.3454 15.0361 18.1123 14.3366L15.8933 7.67968C15.6917 7.07473 15.1255 6.66669 14.4878 6.66669H9.62971Z" stroke="white" stroke-width="2" stroke-linecap="round" stroke-linejoin="round"/>
</g>
<defs>
<clipPath id="clip0_1078_5901">
<rect width="40" height="40" fill="white"/>
</clipPath>
</defs>
</svg>
